<?xml version="1.0" encoding="utf-8"?>
<!-- Generator: Adobe Illustrator 21.0.2, SVG Export Plug-In . SVG Version: 6.00 Build 0)  -->
<svg version="1.1" id="圖層_1" xmlns="http://www.w3.org/2000/svg" xmlns:xlink="http://www.w3.org/1999/xlink" x="0px" y="0px"
	 viewBox="0 0 130 40" style="enable-background:new 0 0 130 40;" xml:space="preserve">
<style type="text/css">
	.st0{fill:#FFFFFF;}
	.st1{fill:#686868;}
	.st2{fill:#FF7800;}
	.st3{fill:#4D4D4D;}
	.st4{font-family:'LinGothic-bold';}
	.st5{font-size:15px;}
</style>
<rect class="st0" width="130" height="40"/>
<rect x="5.4" y="1" class="st0" width="37" height="37"/>
<g>
	<path class="st1" d="M24.4,19.5L24.4,19.5l2.4,0v0c0-3.8-3.1-6.9-6.9-6.9c-2.5,0-4.7,1.3-5.9,3.3v-3.3h-2.5L9.1,15h2.5v11.4H14
		v-3.3c-0.6-1.1-1-2.3-1-3.6c0-1.4,0.5-2.8,1.4-3.8c0,0,0,0,0.1-0.1c0.1-0.1,0.3-0.3,0.4-0.4c0,0,0.1-0.1,0.1-0.1
		c0.1-0.1,0.3-0.3,0.5-0.4c0,0,0,0,0,0c0.2-0.1,0.4-0.2,0.6-0.3c0,0,0,0,0,0c0.2-0.1,0.4-0.2,0.5-0.2c0.1,0,0.1,0,0.2-0.1
		c0.1-0.1,0.3-0.1,0.4-0.1c0.1,0,0.1,0,0.2-0.1c0.1,0,0.3-0.1,0.5-0.1c0.1,0,0.1,0,0.2,0c0.2,0,0.4,0,0.7,0c0.3,0,0.7,0,1,0.1
		c0,0,0.1,0,0.1,0c0.1,0,0.1,0,0.2,0c0.5,0.1,0.9,0.3,1.3,0.5c0,0,0,0,0,0c0.2,0.1,0.3,0.2,0.5,0.3c0,0,0,0,0,0
		c0.1,0.1,0.3,0.2,0.4,0.3c0,0,0,0,0,0c0.1,0.1,0.2,0.2,0.4,0.3c0,0,0,0,0,0c0.1,0.1,0.2,0.2,0.3,0.3c0,0,0,0,0,0
		c0.1,0.1,0.2,0.2,0.3,0.4c0,0.1,0.1,0.1,0.1,0.2c0.1,0.1,0.1,0.2,0.2,0.3c0.1,0.1,0.1,0.2,0.2,0.3c0,0.1,0.1,0.1,0.1,0.2
		c0.1,0.1,0.1,0.2,0.1,0.3c0,0,0,0.1,0.1,0.1c0.1,0.2,0.1,0.3,0.2,0.5c0,0,0,0,0,0c0.1,0.3,0.2,0.7,0.2,1.1
		C24.4,19.2,24.4,19.4,24.4,19.5"/>
	<path class="st1" d="M35.8,21.6v-9h-0.4l-11,11h9v2.9h2.4v-2.9h2.9v-2H35.8z M33.4,21.6h-4.1l4.1-4.1V21.6z"/>
	<path class="st2" d="M24.4,23.6l2.2-2.2c0.2-0.6,0.3-1.2,0.3-1.9h-2.4c0,2.5-2,4.5-4.5,4.5c-2.5,0-4.5-2-4.5-4.5
		c0-2.5,2-4.5,4.5-4.5c2.3,0,4.2,1.8,4.5,4c-0.2-2.9-2.7-5.3-5.7-5.3c-3.2,0-5.7,2.6-5.7,5.7c0,3.8,3.1,6.9,6.9,6.9
		c2.3,0,4.3-1.1,5.6-2.9H24.4z"/>
</g>
<text transform="matrix(1 0 0 1 49.1407 23.6074)" class="st3 st4 st5">開發者中心</text>
<line class="st3" x1="49.5" y1="30" x2="124" y2="30"/>
</svg>
